<svg id="Layer_2" data-name="Layer 2" xmlns="http://www.w3.org/2000/svg" viewBox="0 0 62.52 33.46"><defs><style>.cls-1{fill:#231f20;}</style></defs><title>downArrow</title><path class="cls-1" d="M2.66,4.55C4.17,5.69,5.61,6.89,7,8.13s2.8,2.49,4.16,3.77,2.7,2.58,4,3.91c0.67,0.65,1.31,1.33,2,2S18.4,19.19,19,19.88c1.23,1.41,2.41,2.86,3.59,4.32s2.39,2.88,3.65,4.26c0.64,0.68,1.26,1.37,1.93,2s1.3,1.33,2,2c1.33,1.31,2.73,2.55,4.12,3.81H33.12c1.21-1.43,2.39-2.88,3.62-4.29s2.48-2.79,3.74-4.17l3.79-4.13c0.63-.69,1.28-1.36,1.92-2l1.95-2c1.33-1.31,2.64-2.64,4-3.92s2.71-2.57,4.09-3.83S59,9.37,60.42,8.15s2.86-2.43,4.34-3.59L65,4.76c-1.12,1.52-2.28,3-3.45,4.45s-2.38,2.89-3.6,4.31-2.45,2.82-3.7,4.21-2.53,2.75-3.79,4.12l-1.95,2c-0.65.67-1.3,1.34-2,2l-4,3.92c-1.34,1.3-2.68,2.6-4,3.87s-2.78,2.5-4.17,3.76L33.63,38l-0.51-.61c-1.2-1.43-2.41-2.86-3.67-4.24-0.62-.7-1.27-1.37-1.91-2s-1.31-1.33-2-2q-2-1.95-4.14-3.78c-1.41-1.23-2.83-2.46-4.2-3.73-0.67-.65-1.37-1.28-2-2s-1.31-1.33-1.94-2c-1.28-1.36-2.54-2.73-3.77-4.14S7.06,10.69,5.88,9.24,3.54,6.31,2.45,4.76Z" transform="translate(-2.45 -4.55)"/></svg>