<svg id="Layer_1" data-name="Layer 1" xmlns="http://www.w3.org/2000/svg" viewBox="0 0 66.88 66.88"><defs><style>.cls-1{fill:#231f20;}</style></defs><title>homePageHamburger</title><path class="cls-1" d="M68.55,68.55C57.7,68.78,46.85,68.87,36,69l-32.55.28H2.69V68.55C2.56,57.7,2.59,46.85,2.54,36L2.45,3.45v-1h1L36,2.54c10.85,0,21.7,0,32.55.14h0.78V3.45L69,36C68.87,46.85,68.78,57.7,68.55,68.55Zm0,0C68.32,57.7,68.23,46.85,68.06,36L67.78,3.45l0.77,0.77C57.7,4.34,46.85,4.31,36,4.36L3.45,4.45l1-1L4.36,36c0,10.85,0,21.7-.14,32.55l-0.77-.77L36,68.06C46.85,68.23,57.7,68.33,68.55,68.55Z" transform="translate(-2.45 -2.45)"/><path class="cls-1" d="M68.55,68.55c-9.2.23-18.4,0.32-27.6,0.49l-27.6.28H12.59V68.55c-0.12-9.2-.1-18.4-0.14-27.6l-0.09-27.6v-1h1L41,12.44c9.2,0,18.4,0,27.6.14h0.78v0.76L69,41C68.87,50.15,68.78,59.35,68.55,68.55Zm0,0c-0.23-9.2-.32-18.4-0.49-27.6l-0.28-27.6,0.77,0.77c-9.2.12-18.4,0.09-27.6,0.14l-27.6.09,1-1L14.26,41c0,9.2,0,18.4-.14,27.6l-0.77-.77L41,68.06C50.15,68.23,59.35,68.33,68.55,68.55Z" transform="translate(-2.45 -2.45)"/><path class="cls-1" d="M68.55,67.87c-6.64.23-13.27,0.32-19.91,0.49l-19.91.28H28V67.87c-0.12-6.64-.1-13.27-0.14-19.91L27.74,28.06v-1h1l19.91,0.09c6.64,0,13.27,0,19.91.14h0.78v0.76L69,48C68.87,54.6,68.78,61.23,68.55,67.87Zm0,0C68.32,61.23,68.23,54.6,68.06,48L67.78,28.06l0.77,0.77c-6.64.12-13.27,0.09-19.91,0.14l-19.91.09,1-1L29.65,48c0,6.64,0,13.27-.14,19.91l-0.77-.77,19.91,0.28C55.28,67.54,61.92,67.64,68.55,67.87Z" transform="translate(-2.45 -2.45)"/></svg>