<svg id="Layer_2" data-name="Layer 2" xmlns="http://www.w3.org/2000/svg" viewBox="0 0 43.7 66.5"><defs><style>.cls-1{fill:#05060a;}.cls-2{fill:#09090f;}.cls-3{fill:#f9f9fa;}</style></defs><title>homeIcon</title><path class="cls-1" d="M26.46,10.43l-0.39.77c-0.25.51-.59,1.25-1,2.23a56.3,56.3,0,0,0-2.5,8.32,129.35,129.35,0,0,0-2.83,26.19c0,2.39,0,4.79.21,7.13a62.43,62.43,0,0,0,.77,6.79A20.64,20.64,0,0,0,21.45,65a7.65,7.65,0,0,0,.55,1.3,2,2,0,0,0,.62.78A0.45,0.45,0,0,0,23.16,67,3.59,3.59,0,0,0,24,66.21,12.82,12.82,0,0,0,25.53,64a48.24,48.24,0,0,0,2.17-4.33c0.58-1.34,1.07-2.52,1.48-3.49l1.25-3.07,0.19,0.06-0.19.85c-0.12.56-.32,1.36-0.59,2.39s-0.61,2.27-1.08,3.67a38.5,38.5,0,0,1-1.83,4.68,14.38,14.38,0,0,1-1.54,2.57,5.32,5.32,0,0,1-1.3,1.22c-0.16.09-.31,0.17-0.48,0.25L23,69a4.25,4.25,0,0,1-.67,0,3.9,3.9,0,0,1-.63-0.21,3.67,3.67,0,0,1-1.48-1.51,9.57,9.57,0,0,1-.73-1.65,22.59,22.59,0,0,1-.84-3.38,75,75,0,0,1-.52-14.31,138.71,138.71,0,0,1,1.29-14.17,100.64,100.64,0,0,1,2.46-12.15,56.8,56.8,0,0,1,2.86-8.29c0.43-1,.82-1.71,1.09-2.21l0.42-.76Z" transform="translate(-4.32 -2.49)"/><path class="cls-2" d="M46.64,2.63l-1.21,1.3L41.94,7.54c-1.5,1.56-3.38,3.39-5.5,5.52s-4.55,4.5-7.19,7.09l-8.57,8.31c-3,2.94-6.37,5.94-9.52,9.27-0.39.42-.77,0.84-1.13,1.28a7.67,7.67,0,0,0-.49.66,1.67,1.67,0,0,0-.14.26,0.32,0.32,0,0,0-.15-0.26,0.23,0.23,0,1,1-.11,0,6,6,0,0,0,1.46-.68c0.5-.29,1-0.61,1.5-0.93,2-1.29,3.93-2.72,5.86-4.18s3.85-3,5.78-4.51l5.72-4.69c3.82-3.14,7.66-6.24,11.67-9.06a24.47,24.47,0,0,1,3.22-2,4.43,4.43,0,0,1,.52-0.21,2.36,2.36,0,0,1,.35-0.09,1.37,1.37,0,0,1,.64,0,1.14,1.14,0,0,1,.54.36,1.32,1.32,0,0,1,.18.31,1.13,1.13,0,0,1,.06.26,1.46,1.46,0,0,1-.06.61,3.22,3.22,0,0,1-.26.59,13,13,0,0,1-1.09,1.61c-1.51,1.94-3.1,3.67-4.66,5.39-3.15,3.41-6.29,6.61-9.32,9.58s-5.92,5.75-8.61,8.3-5.15,4.88-7.38,6.9L9.52,52.52,4.46,57,4.32,56.9S6,55.08,9,51.94l5.4-5.61c2.08-2.18,4.47-4.58,7.06-7.22l8.36-8.52c3-3,6.11-6.2,9.29-9.52,1.58-1.66,3.2-3.37,4.66-5.16a11.57,11.57,0,0,0,1-1.33,1.82,1.82,0,0,0,.11-0.22,0.49,0.49,0,0,0,0,.17,0.72,0.72,0,0,0,0,.15,0.63,0.63,0,0,0,.13.21,0.76,0.76,0,0,0,.35.24,0.38,0.38,0,0,0,.2,0l-0.09,0-0.32.12a26.79,26.79,0,0,0-3,1.75c-2,1.3-4,2.72-6,4.14s-4,2.86-6,4.32l-5.93,4.41c-2,1.49-3.91,3-5.86,4.41s-3.88,2.89-5.84,4.28c-0.49.34-1,.68-1.49,1a6.87,6.87,0,0,1-1.71.87,0.69,0.69,0,0,1-.54-0.08A0.56,0.56,0,0,1,8.51,40a0.72,0.72,0,0,1,0-.27,2,2,0,0,1,.22-0.54,8.48,8.48,0,0,1,.51-0.78c0.35-.49.72-0.95,1.1-1.4,1.5-1.8,3-3.47,4.57-5.11s3-3.2,4.54-4.71c3-3,5.93-5.75,8.63-8.28s5.21-4.82,7.46-6.81,4.18-3.77,5.82-5.18L46.5,2.49Z" transform="translate(-4.32 -2.49)"/><path class="cls-3" d="M48,7.56l-4.81,4.79-5.58,5.43-7.27,7-8.58,8.3c-3,3-6.29,6-9.41,9.41-0.39.43-.77,0.86-1.12,1.31a7.73,7.73,0,0,0-.49.69,1.46,1.46,0,0,0-.16.33c0,0.06,0,0,0,0s0,0,.05,0a6.26,6.26,0,0,0,1.52-.73c0.5-.3,1-0.62,1.49-1,2-1.32,3.92-2.73,5.86-4.2s3.87-3,5.8-4.48L31,29.82c3.87-3.06,7.75-6.12,11.75-8.91A24.6,24.6,0,0,1,46,19a4,4,0,0,1,.47-0.19,1.23,1.23,0,0,1,.72-0.05,0.67,0.67,0,0,1,.32.21,0.68,0.68,0,0,1,.14.34,1,1,0,0,1,0,.42,2.75,2.75,0,0,1-.22.5,12.57,12.57,0,0,1-1.06,1.54c-1.49,1.9-3.09,3.63-4.66,5.34-3.16,3.4-6.33,6.55-9.32,9.56S26.41,42.44,23.74,45l-7.3,7-5.65,5.36L5.84,62,5.77,61.9l4.75-4.85L23.15,44.4l8.42-8.47c3-3,6.11-6.2,9.29-9.55,1.58-1.68,3.19-3.39,4.66-5.22a11.81,11.81,0,0,0,1-1.4,1.92,1.92,0,0,0,.15-0.32s0-.08,0,0a0.35,0.35,0,0,0,.19.22c0.1,0-.07,0-0.16,0l-0.37.14a26.76,26.76,0,0,0-3.06,1.8c-4,2.67-8,5.65-11.91,8.61s-7.83,6-11.72,8.92c-1.95,1.45-3.87,2.91-5.84,4.26-0.49.34-1,.67-1.5,1a6.85,6.85,0,0,1-1.65.82,0.5,0.5,0,0,1-.37,0,0.4,0.4,0,0,1-.14-0.43,1.77,1.77,0,0,1,.2-0.47,8.14,8.14,0,0,1,.51-0.75c0.36-.47.73-0.92,1.11-1.37,3.06-3.5,6.2-6.69,9.22-9.67s5.92-5.75,8.61-8.29,5.16-4.86,7.38-6.89l5.74-5.26,5-4.56Z" transform="translate(-4.32 -2.49)"/></svg>